<svg width="88" height="88" viewBox="0 0 88 88" fill="none" xmlns="http://www.w3.org/2000/svg">
<rect width="88" height="88" fill="#2B00D4"/>
<path d="M38 22V26H50V22H54V26H62C62.5304 26 63.0391 26.2107 63.4142 26.5858C63.7893 26.9609 64 27.4696 64 28V60C64 60.5304 63.7893 61.0391 63.4142 61.4142C63.0391 61.7893 62.5304 62 62 62H26C25.4696 62 24.9609 61.7893 24.5858 61.4142C24.2107 61.0391 24 60.5304 24 60V28C24 27.4696 24.2107 26.9609 24.5858 26.5858C24.9609 26.2107 25.4696 26 26 26H34V22H38ZM60 40H28V58H60V40ZM50.072 42.272L52.9 45.1L43 55L35.928 47.928L38.76 45.1L43.002 49.344L50.074 42.272H50.072ZM34 30H28V36H60V30H54V32H50V30H38V32H34V30Z" fill="white"/>
<path d="M50.0717 42.272L52.8997 45.1L42.9997 55L35.9277 47.928L38.7597 45.1L43.0017 49.344L50.0737 42.272H50.0717Z" fill="#00E4FF"/>
</svg>
