<svg width="563" height="563" viewBox="0 0 563 563" fill="none" xmlns="http://www.w3.org/2000/svg">
<path fill-rule="evenodd" clip-rule="evenodd" d="M0.856506 281.501C0.856506 245.839 7.4996 211.729 19.6158 180.341C20.4602 178.153 21.3312 175.979 22.2283 173.818C35.0958 142.829 53.3499 114.64 75.8222 90.4203C89.0691 76.1434 103.782 63.2455 119.721 51.9661C153.646 27.9586 193.127 11.2829 235.857 4.24668C250.824 1.78195 266.191 0.5 281.857 0.5C297.522 0.5 312.889 1.78195 327.856 4.24668C370.586 11.2829 410.067 27.9586 443.992 51.9661C459.931 63.2455 474.644 76.1434 487.891 90.4203C510.363 114.64 528.617 142.829 541.485 173.818C542.382 175.979 543.253 178.153 544.097 180.341C556.213 211.729 562.857 245.839 562.857 281.501C562.857 317.163 556.213 351.273 544.097 382.661H443.992C450.365 372.469 455.803 361.632 460.187 350.271C468.422 328.932 472.936 305.744 472.936 281.501C472.936 244.351 462.335 209.678 443.992 180.341L443.8 180.033C410.001 126.204 350.108 90.4203 281.857 90.4203C213.605 90.4203 153.712 126.204 119.913 180.033L119.721 180.341C101.378 209.678 90.7765 244.351 90.7765 281.501C90.7765 305.744 95.2912 328.932 103.526 350.271C107.91 361.632 113.348 372.469 119.721 382.661H19.6158C7.4996 351.273 0.856506 317.163 0.856506 281.501ZM119.713 511.034C103.774 499.754 89.0614 486.857 75.8145 472.58H487.883C474.636 486.857 459.924 499.754 443.985 511.034C398.176 543.451 342.237 562.5 281.849 562.5C221.461 562.5 165.522 543.451 119.713 511.034Z" fill="#29243E"/>
</svg>
