<svg width="88" height="88" viewBox="0 0 88 88" fill="none" xmlns="http://www.w3.org/2000/svg">
<rect width="88" height="88" fill="#2B00D4"/>
<path d="M47.68 33.7783C48.21 33.0523 49.728 31.9943 50.834 31.2483C50.834 31.2483 44.7959 29.1053 40.448 30.435C34.692 32.1952 33 34.8643 33 34.8643C33.2617 35.1052 33.4702 35.3981 33.612 35.7243C34.02 36.6383 34.02 37.5803 34.02 38.4143L34.02 38.4325C34.02 39.0818 34.02 39.6965 34.23 40.1443C34.52 40.7603 35.762 41.0223 36.86 41.2523C37.254 41.3363 37.658 41.4203 38.026 41.5223C39.038 41.8023 39.822 42.7123 40.448 43.4423L40.4709 43.4686C40.7319 43.7696 41.0995 44.1935 41.286 44.3023C41.388 44.2303 41.71 43.8803 41.87 43.3063C41.992 42.8683 41.958 42.4783 41.778 42.2683C40.66 40.9483 40.72 38.4043 41.066 37.4683C41.6098 35.9909 43.3085 36.1002 44.5523 36.1802L44.554 36.1803C45.018 36.2103 45.456 36.2383 45.78 36.1983C47.026 36.0423 47.41 34.1483 47.68 33.7783Z" fill="#00E4FF"/>
<path d="M49.058 53.1663C49.264 53.6703 49.768 55.1103 49.538 56.6103C52.434 55.8163 54.84 53.1663 55.948 51.7883C56.068 51.1903 56.144 50.5023 56.144 49.7203V49.5103C56.144 47.6663 56.144 46.8243 54.84 46.0783C54.29 45.7683 53.88 45.5783 53.55 45.4283C52.816 45.0963 52.33 44.8763 51.674 43.9163L51.442 43.5723C50.752 42.5223 50.254 41.7663 48.358 42.0663C44.628 42.6583 44.352 43.3143 44.188 44.4223L44.162 44.6043C43.92 46.2223 43.876 46.7683 44.552 47.4783C47.082 50.1323 48.598 52.0463 49.058 53.1663Z" fill="#00E4FF"/>
<path fill-rule="evenodd" clip-rule="evenodd" d="M44 60C52.8366 60 60 52.8366 60 44C60 35.1634 52.8366 28 44 28C35.1634 28 28 35.1634 28 44C28 52.8366 35.1634 60 44 60ZM44 64C55.0457 64 64 55.0457 64 44C64 32.9543 55.0457 24 44 24C32.9543 24 24 32.9543 24 44C24 55.0457 32.9543 64 44 64Z" fill="white"/>
</svg>
