<svg width="1340" height="133" viewBox="0 0 1340 133" fill="none" xmlns="http://www.w3.org/2000/svg">
<path fill-rule="evenodd" clip-rule="evenodd" d="M242.492 0.0381839C315.177 -0.324377 374.098 1.93551 374.098 5.09291C374.098 8.24696 315.177 11.0952 242.492 11.4577C169.807 11.8203 110.888 9.55819 110.888 6.40413C110.888 3.25007 169.807 0.399633 242.492 0.0381839" fill="#232422"/>
<path fill-rule="evenodd" clip-rule="evenodd" d="M1339.76 43.9771C1339.76 55.5968 1057.59 65.0145 709.517 65.0145C361.443 65.0145 79.2753 55.5968 79.2753 43.9771C79.2753 32.3574 361.443 22.9397 709.517 22.9397C1057.59 22.9397 1339.76 32.3574 1339.76 43.9771Z" fill="#FFFFFE"/>
<path fill-rule="evenodd" clip-rule="evenodd" d="M842.031 8.19804C1062.31 11.4956 1240.89 19.8711 1240.89 26.9044C1240.89 33.932 1062.31 36.9593 842.031 33.6584C621.749 30.3576 443.175 21.982 443.175 14.9521C443.175 7.92111 621.749 4.89607 842.031 8.19804" fill="#232422"/>
<path fill-rule="evenodd" clip-rule="evenodd" d="M44.1631 0.921143L1282.95 14.4438L1282.93 15.458L44.1475 1.9332L44.1631 0.921143" fill="#232422"/>
<path fill-rule="evenodd" clip-rule="evenodd" d="M351.684 29.8115C440.019 29.8115 511.624 32.3672 511.624 35.5235C511.624 38.6776 440.019 41.2322 351.684 41.2322C263.35 41.2322 191.743 38.6776 191.743 35.5235C191.743 32.3672 263.35 29.8115 351.684 29.8115" fill="#232422"/>
<path fill-rule="evenodd" clip-rule="evenodd" d="M35.0193 20.0957L1273.81 41.2777L1273.79 42.2909L35.0026 21.11L35.0193 20.0957" fill="#232422"/>
<path fill-rule="evenodd" clip-rule="evenodd" d="M746.542 23.865C942.479 26.2661 1101.32 32.3607 1101.32 37.4788C1101.32 42.5924 942.479 44.7945 746.542 42.3934C550.604 39.9911 391.766 33.8977 391.766 28.7807C391.766 23.6648 550.604 21.4639 746.542 23.865" fill="#232422"/>
<path fill-rule="evenodd" clip-rule="evenodd" d="M833.161 22.5448C951.741 25.6088 1047.87 32.1171 1047.87 37.0795C1047.87 42.0453 951.741 43.5845 833.161 40.5205C714.583 37.4554 618.456 30.9493 618.456 25.9836C618.456 21.0212 714.583 19.4797 833.161 22.5448" fill="#232422"/>
<path fill-rule="evenodd" clip-rule="evenodd" d="M93.6302 55.8048C93.6302 55.8048 563.948 67.1776 544.798 54.9284C525.652 42.6793 93.6302 55.8048 93.6302 55.8048" fill="#CFCED8"/>
<path fill-rule="evenodd" clip-rule="evenodd" d="M1097.03 106.41L1155.78 107.415V108.43L1097.03 107.424V106.41ZM508.149 96.3404L1083.35 106.174V107.188L508.149 97.3547V96.3404ZM485.681 95.9566L494.467 96.1068V97.1211L485.681 96.9709V95.9566ZM334.483 93.3721L471.998 95.7231V96.7374L334.483 94.3863V93.3721ZM1290.76 109.722V110.736L1169.46 108.662V107.648L1290.76 109.722ZM57.7258 88.6399L320.8 93.1363V94.1506L57.7102 89.6531L57.7258 88.6399V88.6399Z" fill="#FFFFFE"/>
<path fill-rule="evenodd" clip-rule="evenodd" d="M817.57 69.8577C817.57 69.8577 1237.95 77.5049 1220.83 69.2683C1203.72 61.0306 817.57 69.8577 817.57 69.8577" fill="#FFFFFE"/>
<path fill-rule="evenodd" clip-rule="evenodd" d="M311.858 75.1717C311.858 75.1717 732.237 82.821 715.119 74.5822C698.004 66.3468 311.858 75.1717 311.858 75.1717" fill="#FFFFFE"/>
<path fill-rule="evenodd" clip-rule="evenodd" d="M589.354 85.9395C589.354 85.9395 1009.73 93.5889 992.617 85.3501C975.502 77.1124 589.354 85.9395 589.354 85.9395" fill="#FFFFFE"/>
</svg>
