<svg width="88" height="88" viewBox="0 0 88 88" fill="none" xmlns="http://www.w3.org/2000/svg">
<rect width="88" height="88" fill="#2B00D4"/>
<path d="M44.0001 21L52.4521 33.366L66.8261 37.584L57.6761 49.444L58.1061 64.416L44.0001 59.38L29.8941 64.416L30.3241 49.444L21.1741 37.584L35.5481 33.366L44.0001 21ZM44.0001 28.088L38.0441 36.804L27.9141 39.774L34.3641 48.13L34.0581 58.68L44.0001 55.132L53.9401 58.68L53.6361 48.13L60.0841 39.774L49.9561 36.804L44.0001 28.088Z" fill="white"/>
<path d="M40 44C40 45.0609 40.4214 46.0783 41.1716 46.8284C41.9217 47.5786 42.9391 48 44 48C45.0609 48 46.0783 47.5786 46.8284 46.8284C47.5786 46.0783 48 45.0609 48 44H52C52 46.1217 51.1571 48.1566 49.6569 49.6569C48.1566 51.1571 46.1217 52 44 52C41.8783 52 39.8434 51.1571 38.3431 49.6569C36.8429 48.1566 36 46.1217 36 44H40Z" fill="#00E4FF"/>
</svg>
