<svg width="122" height="48" viewBox="0 0 122 48" fill="none" xmlns="http://www.w3.org/2000/svg">
<path d="M73.488 30.608C77.088 30.608 79.86 27.998 79.86 24.11C79.86 20.204 77.088 17.594 73.488 17.594C69.654 17.594 67.062 20.42 67.062 24.11C67.062 27.8 69.654 30.608 73.488 30.608ZM73.488 29.114C70.626 29.114 68.682 26.882 68.682 24.11C68.682 21.338 70.626 19.088 73.488 19.088C76.134 19.088 78.222 21.14 78.222 24.11C78.222 27.044 76.134 29.114 73.488 29.114ZM86.6478 21.626C85.4598 21.626 84.4338 22.238 83.7858 23.282H83.7678V21.734H82.3098V30.5H83.7678V26.27C83.7678 24.506 84.7758 23.228 86.4318 23.228C86.5758 23.228 86.8098 23.246 87.0078 23.264V21.644C86.9178 21.626 86.7918 21.626 86.6478 21.626ZM89.6074 20.114C90.1834 20.114 90.6514 19.664 90.6514 19.088C90.6514 18.53 90.1834 18.062 89.6074 18.062C89.0134 18.062 88.5634 18.53 88.5634 19.088C88.5634 19.664 89.0134 20.114 89.6074 20.114ZM88.8694 30.5H90.3274V21.734H88.8694V30.5ZM99.6514 22.778V21.734H92.8294V22.994H97.6354V23.03L92.5594 29.42V30.5H99.6334V29.24H94.5214V29.204L99.6514 22.778ZM105.361 30.608C107.935 30.608 109.861 28.79 109.861 26.126C109.861 23.462 107.935 21.626 105.361 21.626C102.625 21.626 100.825 23.606 100.825 26.126C100.825 28.646 102.625 30.608 105.361 30.608ZM105.361 29.276C103.543 29.276 102.301 27.872 102.301 26.126C102.301 24.38 103.525 22.976 105.361 22.976C107.053 22.976 108.385 24.254 108.385 26.126C108.385 27.98 107.053 29.276 105.361 29.276ZM116.767 21.626C115.471 21.626 114.319 22.22 113.581 23.264H113.563V21.734H112.105V30.5H113.563V26.126C113.563 24.146 114.661 22.976 116.317 22.976C117.595 22.976 118.459 23.66 118.459 25.712V30.5H119.917V25.298C119.917 22.796 118.657 21.626 116.767 21.626Z" fill="#0F0928"/>
<path fill-rule="evenodd" clip-rule="evenodd" d="M15.2038 0.625962C7.50402 1.42738 1.4398 7.5058 0.636075 15.2053C0.277345 18.6419 0 21.9588 0 24C0 26.0412 0.277345 29.3581 0.636075 32.7947C1.4398 40.4942 7.50402 46.5726 15.2038 47.374C18.6031 47.7279 21.9003 48 24 48C26.0945 48 29.3805 47.7292 32.771 47.3767C40.4828 46.5748 46.5501 40.4792 47.3564 32.7679C47.7188 29.3024 48 25.9763 48 24C48 22.0237 47.7188 18.6976 47.3564 15.2321C46.5501 7.52077 40.4828 1.42521 32.771 0.623337C29.3805 0.270801 26.0945 0 24 0C21.9003 0 18.6031 0.272146 15.2038 0.625962ZM21.3333 12.8889C16.6696 12.8889 12.8889 16.6696 12.8889 21.3333V26.6667C12.8889 31.3304 16.6696 35.1111 21.3333 35.1111H26.6667C31.3304 35.1111 35.1111 31.3304 35.1111 26.6667V21.3333C35.1111 16.6696 31.3304 12.8889 26.6667 12.8889H21.3333Z" fill="#2B00D4"/>
<path d="M23.625 47.25C36.6727 47.25 47.25 36.6727 47.25 23.625C47.25 10.5773 36.6727 0 23.625 0C10.5773 0 0 10.5773 0 23.625C0 36.6727 10.5773 47.25 23.625 47.25Z" fill="#2B00D4"/>
<rect width="48" height="48" fill="#2B00D4"/>
<mask id="path-5-inside-1" fill="white">
<path fill-rule="evenodd" clip-rule="evenodd" d="M35.1989 28.32C35.7163 26.9796 36 25.5229 36 24C36 17.3726 30.6274 12 24 12C17.3726 12 12 17.3726 12 24C12 25.5229 12.2837 26.9796 12.8011 28.32H17.0761C16.2927 27.0672 15.84 25.5865 15.84 24C15.84 19.4934 19.4934 15.84 24 15.84C28.5066 15.84 32.16 19.4934 32.16 24C32.16 25.5865 31.7073 27.0672 30.9239 28.32H35.1989ZM32.7986 32.16H24H15.2014C17.3929 34.5219 20.5238 36 24 36C27.4762 36 30.6071 34.5219 32.7986 32.16Z"/>
</mask>
<path fill-rule="evenodd" clip-rule="evenodd" d="M35.1989 28.32C35.7163 26.9796 36 25.5229 36 24C36 17.3726 30.6274 12 24 12C17.3726 12 12 17.3726 12 24C12 25.5229 12.2837 26.9796 12.8011 28.32H17.0761C16.2927 27.0672 15.84 25.5865 15.84 24C15.84 19.4934 19.4934 15.84 24 15.84C28.5066 15.84 32.16 19.4934 32.16 24C32.16 25.5865 31.7073 27.0672 30.9239 28.32H35.1989ZM32.7986 32.16H24H15.2014C17.3929 34.5219 20.5238 36 24 36C27.4762 36 30.6071 34.5219 32.7986 32.16Z" fill="white"/>
<path d="M35.1989 28.32V48.32H48.917L53.8571 35.5222L35.1989 28.32ZM12.8011 28.32L-5.85708 35.5222L-0.917026 48.32H12.8011V28.32ZM17.0761 28.32V48.32H53.1684L34.0342 17.7171L17.0761 28.32ZM30.9239 28.32L13.9658 17.7171L-5.16838 48.32H30.9239V28.32ZM32.7986 32.16L47.4597 45.7634L78.6387 12.16H32.7986V32.16ZM15.2014 32.16V12.16H-30.6387L0.540251 45.7634L15.2014 32.16ZM16 24C16 23.0213 16.1853 22.0385 16.5407 21.1178L53.8571 35.5222C55.2473 31.9206 56 28.0246 56 24H16ZM24 32C19.5817 32 16 28.4183 16 24H56C56 6.32689 41.6731 -8 24 -8V32ZM32 24C32 28.4183 28.4183 32 24 32V-8C6.32689 -8 -8 6.32689 -8 24H32ZM31.4593 21.1178C31.8147 22.0385 32 23.0213 32 24H-8C-8 28.0246 -7.24734 31.9206 -5.85708 35.5222L31.4593 21.1178ZM12.8011 48.32H17.0761V8.32H12.8011V48.32ZM34.0342 17.7171C35.1807 19.5508 35.84 21.729 35.84 24H-4.16C-4.16 29.4439 -2.59522 34.5836 0.117923 38.9229L34.0342 17.7171ZM35.84 24C35.84 30.5391 30.5391 35.84 24 35.84V-4.16C8.44766 -4.16 -4.16 8.44766 -4.16 24H35.84ZM24 35.84C17.4609 35.84 12.16 30.5391 12.16 24H52.16C52.16 8.44766 39.5523 -4.16 24 -4.16V35.84ZM12.16 24C12.16 21.729 12.8193 19.5508 13.9658 17.7171L47.8821 38.9229C50.5952 34.5836 52.16 29.4439 52.16 24H12.16ZM30.9239 48.32H35.1989V8.32H30.9239V48.32ZM32.7986 12.16H24V52.16H32.7986V12.16ZM24 12.16H15.2014V52.16H24V12.16ZM24 16C26.3169 16 28.4282 17.0108 29.8625 18.5566L0.540251 45.7634C6.35764 52.0331 14.7308 56 24 56V16ZM18.1375 18.5566C19.5718 17.0108 21.6831 16 24 16V56C33.2692 56 41.6424 52.0331 47.4597 45.7634L18.1375 18.5566Z" fill="white" mask="url(#path-5-inside-1)"/>
<mask id="mask0" mask-type="alpha" maskUnits="userSpaceOnUse" x="12" y="12" width="24" height="24">
<mask id="path-7-inside-2" mask-type="luminance" fill="white">
<path fill-rule="evenodd" clip-rule="evenodd" d="M35.1989 28.32C35.7163 26.9796 36 25.5229 36 24C36 17.3726 30.6274 12 24 12C17.3726 12 12 17.3726 12 24C12 25.5229 12.2837 26.9796 12.8011 28.32H17.0761C16.2927 27.0672 15.84 25.5865 15.84 24C15.84 19.4934 19.4934 15.84 24 15.84C28.5066 15.84 32.16 19.4934 32.16 24C32.16 25.5865 31.7073 27.0672 30.9239 28.32H35.1989ZM32.7986 32.16H24H15.2014C17.3929 34.5219 20.5238 36 24 36C27.4762 36 30.6071 34.5219 32.7986 32.16Z"/>
</mask>
<path fill-rule="evenodd" clip-rule="evenodd" d="M35.1989 28.32C35.7163 26.9796 36 25.5229 36 24C36 17.3726 30.6274 12 24 12C17.3726 12 12 17.3726 12 24C12 25.5229 12.2837 26.9796 12.8011 28.32H17.0761C16.2927 27.0672 15.84 25.5865 15.84 24C15.84 19.4934 19.4934 15.84 24 15.84C28.5066 15.84 32.16 19.4934 32.16 24C32.16 25.5865 31.7073 27.0672 30.9239 28.32H35.1989ZM32.7986 32.16H24H15.2014C17.3929 34.5219 20.5238 36 24 36C27.4762 36 30.6071 34.5219 32.7986 32.16Z" fill="white"/>
<path d="M35.1989 28.32V48.32H48.917L53.8571 35.5222L35.1989 28.32ZM12.8011 28.32L-5.85708 35.5222L-0.917026 48.32H12.8011V28.32ZM17.0761 28.32V48.32H53.1684L34.0342 17.7171L17.0761 28.32ZM30.9239 28.32L13.9658 17.7171L-5.16838 48.32H30.9239V28.32ZM32.7986 32.16L47.4597 45.7634L78.6387 12.16H32.7986V32.16ZM15.2014 32.16V12.16H-30.6387L0.540251 45.7634L15.2014 32.16ZM16 24C16 23.0213 16.1853 22.0385 16.5407 21.1178L53.8571 35.5222C55.2473 31.9206 56 28.0246 56 24H16ZM24 32C19.5817 32 16 28.4183 16 24H56C56 6.32689 41.6731 -8 24 -8V32ZM32 24C32 28.4183 28.4183 32 24 32V-8C6.32689 -8 -8 6.32689 -8 24H32ZM31.4593 21.1178C31.8147 22.0385 32 23.0213 32 24H-8C-8 28.0246 -7.24734 31.9206 -5.85708 35.5222L31.4593 21.1178ZM12.8011 48.32H17.0761V8.32H12.8011V48.32ZM34.0342 17.7171C35.1807 19.5508 35.84 21.729 35.84 24H-4.16C-4.16 29.4439 -2.59522 34.5836 0.117923 38.9229L34.0342 17.7171ZM35.84 24C35.84 30.5391 30.5391 35.84 24 35.84V-4.16C8.44766 -4.16 -4.16 8.44766 -4.16 24H35.84ZM24 35.84C17.4609 35.84 12.16 30.5391 12.16 24H52.16C52.16 8.44766 39.5523 -4.16 24 -4.16V35.84ZM12.16 24C12.16 21.729 12.8193 19.5508 13.9658 17.7171L47.8821 38.9229C50.5952 34.5836 52.16 29.4439 52.16 24H12.16ZM30.9239 48.32H35.1989V8.32H30.9239V48.32ZM32.7986 12.16H24V52.16H32.7986V12.16ZM24 12.16H15.2014V52.16H24V12.16ZM24 16C26.3169 16 28.4282 17.0108 29.8625 18.5566L0.540251 45.7634C6.35764 52.0331 14.7308 56 24 56V16ZM18.1375 18.5566C19.5718 17.0108 21.6831 16 24 16V56C33.2692 56 41.6424 52.0331 47.4597 45.7634L18.1375 18.5566Z" fill="white" mask="url(#path-7-inside-2)"/>
</mask>
<g mask="url(#mask0)">
<rect x="12" y="12" width="24" height="24" fill="white"/>
<rect x="12" y="30.24" width="24" height="5.76" fill="#41CCFF"/>
<mask id="mask1" mask-type="alpha" maskUnits="userSpaceOnUse" x="12" y="30" width="24" height="6">
<rect x="12" y="30.24" width="24" height="5.76" fill="white"/>
</mask>
<g mask="url(#mask1)">
<rect x="12" y="12" width="24" height="24" fill="#00E4FF"/>
</g>
</g>
</svg>
