<svg width="88" height="88" viewBox="0 0 88 88" fill="none" xmlns="http://www.w3.org/2000/svg">
<rect width="88" height="88" fill="#2B00D4"/>
<path fill-rule="evenodd" clip-rule="evenodd" d="M44.5174 26C44.4294 26 44.3414 26.0003 44.2534 26.0009C34.1529 26.068 26.0002 34.275 26.0002 44.3757C26.0002 44.6185 26.0025 44.8616 26.007 45.1051C26.192 55.0418 34.2998 63 44.2378 63C44.4062 63 44.5748 62.9989 44.7437 62.9967C54.8368 62.8637 62.9604 54.6647 62.9999 44.5708C63.0002 44.4916 63.0002 44.4916 63.0002 44.4125C63.0002 34.2674 54.7938 26.0338 44.6488 26.0002L44.5174 26ZM29.1457 44.1557C29.1457 35.9534 35.7375 29.2888 43.9042 29.2344C43.9935 29.2338 44.0828 29.2335 44.172 29.2335L44.3053 29.2337C52.5159 29.261 59.1575 35.9535 59.1575 44.1997C59.1575 44.2536 59.1574 44.3075 59.1572 44.3615C59.1458 47.2874 58.3041 50.018 56.8557 52.3266C53.6209 52.5504 37.1722 52.5268 31.3472 52.3881C30.0004 50.2071 29.2035 47.6458 29.1526 44.8974C29.148 44.6498 29.1457 44.4026 29.1457 44.1557Z" fill="#41CCFF"/>
<path fill-rule="evenodd" clip-rule="evenodd" d="M44.1714 22.8398C44.0697 22.8398 43.9681 22.8402 43.8664 22.8409C32.1979 22.9187 22.7795 32.4409 22.7795 44.1604C22.7795 44.442 22.7822 44.7242 22.7874 45.0067C22.8373 47.7017 23.3874 50.2712 24.3477 52.6267C32.5406 52.4225 58.8728 52.534 63.8802 52.57C64.9286 50.0493 65.512 47.2853 65.5233 44.3867C65.5234 44.3449 65.5235 44.3221 65.5235 44.3011C65.5236 44.2759 65.5236 44.2531 65.5236 44.203C65.5236 32.4321 56.0432 22.879 44.3232 22.8401L44.1714 22.8398ZM29.1457 44.1558C29.1457 35.9535 35.7375 29.289 43.9042 29.2345C43.9935 29.2339 44.0828 29.2336 44.172 29.2336L44.3053 29.2338C52.5159 29.2611 59.1575 35.9536 59.1575 44.1999C59.1575 44.2538 59.1574 44.3077 59.1572 44.3616C59.1458 47.2876 58.3041 50.0181 56.8557 52.3267C53.6209 52.5505 37.1722 52.5269 31.3472 52.3882C30.0004 50.2073 29.2035 47.6459 29.1526 44.8975C29.148 44.6499 29.1457 44.4027 29.1457 44.1558Z" fill="white"/>
<path fill-rule="evenodd" clip-rule="evenodd" d="M37.8654 45.6924C39.2673 45.6924 40.4038 44.5559 40.4038 43.1539C40.4038 41.752 39.2673 40.6155 37.8654 40.6155C36.4634 40.6155 35.3269 41.752 35.3269 43.1539C35.3269 44.5559 36.4634 45.6924 37.8654 45.6924Z" fill="white"/>
<path fill-rule="evenodd" clip-rule="evenodd" d="M49.923 45.6924C51.3249 45.6924 52.4614 44.5559 52.4614 43.1539C52.4614 41.752 51.3249 40.6155 49.923 40.6155C48.521 40.6155 47.3845 41.752 47.3845 43.1539C47.3845 44.5559 48.521 45.6924 49.923 45.6924Z" fill="white"/>
<rect x="20.0511" y="50.2417" width="48.2008" height="7.30714" fill="#2B00D4"/>
</svg>
